<?xml version="1.0" standalone="no"?>
<!DOCTYPE svg PUBLIC "-//W3C//DTD SVG 20010904//EN"
 "http://www.w3.org/TR/2001/REC-SVG-20010904/DTD/svg10.dtd">
<svg version="1.0" xmlns="http://www.w3.org/2000/svg"
 width="700.000000pt" height="700.000000pt" viewBox="0 0 700.000000 700.000000"
 preserveAspectRatio="xMidYMid meet">
<metadata>
Created by potrace 1.14, written by Peter Selinger 2001-2017
</metadata>
<g transform="translate(0.000000,700.000000) scale(0.100000,-0.100000)"
fill="#000000" stroke="none">
<path d="M2820 6099 c-914 -85 -1736 -552 -2205 -1254 -137 -205 -269 -509
-324 -745 -58 -251 -73 -584 -37 -820 105 -684 500 -1280 1124 -1694 845 -561
1984 -671 2955 -285 53 21 167 73 253 114 210 102 244 110 479 109 197 0 311
-15 510 -65 363 -92 777 -280 1085 -493 41 -29 81 -56 89 -60 7 -5 -222 343
-509 774 l-523 782 56 112 c113 226 182 440 223 691 26 154 26 495 1 654 -106
673 -503 1267 -1120 1678 -422 281 -927 454 -1467 503 -134 12 -453 11 -590
-1z m498 -435 c189 -93 365 -346 483 -694 23 -69 43 -126 44 -128 2 -2 41 5
88 15 47 9 89 15 92 12 3 -3 0 -20 -6 -38 -6 -18 -9 -54 -6 -80 l6 -48 -65
-13 c-59 -11 -65 -15 -60 -34 30 -122 86 -469 86 -532 0 -28 10 -39 78 -89
102 -77 220 -173 313 -256 l76 -68 35 37 c20 20 65 74 101 118 234 293 319
537 241 693 -48 95 -146 146 -336 176 -37 6 -38 7 -38 51 0 24 -7 61 -15 81
-8 19 -15 37 -15 38 0 8 122 -9 199 -26 177 -41 293 -124 358 -257 37 -75 38
-78 38 -191 -1 -104 -4 -126 -33 -208 -17 -51 -45 -119 -61 -151 -45 -89 -160
-257 -238 -346 -37 -43 -78 -92 -91 -107 l-23 -28 82 -94 c293 -338 418 -651
351 -873 -53 -174 -185 -279 -407 -325 -138 -29 -408 -22 -600 15 -71 14 -135
26 -141 26 -6 0 -21 -34 -34 -75 -13 -41 -26 -75 -29 -75 -3 0 -24 12 -46 25
-22 14 -49 25 -60 25 -43 1 -46 13 -25 75 11 33 19 63 17 68 -1 4 -65 30 -142
56 -77 26 -202 73 -277 105 -133 55 -138 57 -167 41 -49 -25 -266 -110 -395
-154 -66 -23 -121 -43 -123 -45 -5 -4 58 -186 91 -266 41 -96 102 -206 158
-282 198 -269 412 -265 619 11 l26 35 39 -32 c22 -17 54 -34 72 -38 17 -4 32
-10 32 -13 0 -22 -146 -184 -205 -229 -103 -77 -158 -96 -280 -96 -89 -1 -107
3 -164 29 -209 95 -385 341 -512 713 -24 70 -47 122 -54 122 -7 0 -55 -9 -106
-19 -223 -46 -521 -53 -669 -16 -204 50 -343 182 -380 360 -43 208 87 512 345
810 47 55 89 106 92 113 3 7 -18 38 -48 69 l-53 56 30 14 c16 9 46 32 67 52
l38 36 47 -53 47 -52 114 100 c62 55 167 141 232 191 66 49 119 96 119 104 0
41 36 281 61 414 17 84 28 155 26 157 -2 3 -49 13 -103 24 -310 59 -555 50
-705 -25 -57 -30 -122 -101 -137 -153 -25 -83 -9 -201 43 -319 14 -31 25 -57
25 -58 0 -2 -13 -6 -29 -10 -17 -3 -49 -20 -71 -36 -23 -17 -44 -29 -46 -27
-12 13 -65 143 -78 194 -51 199 -18 354 103 474 167 165 497 210 920 124 68
-13 125 -23 126 -22 1 2 19 52 40 113 206 607 536 875 873 709z"/>
<path d="M3055 5537 c-128 -43 -252 -184 -360 -411 -51 -106 -132 -323 -124
-330 2 -1 73 -26 157 -55 84 -29 209 -76 276 -105 l123 -53 63 29 c91 41 332
133 418 158 l73 22 -7 32 c-11 52 -74 215 -119 311 -145 303 -335 456 -500
402z"/>
<path d="M2496 4493 c-24 -128 -46 -258 -46 -275 0 -4 42 19 93 51 50 32 144
86 207 121 63 35 128 71 145 81 l29 18 -46 20 c-54 23 -335 121 -348 121 -4 0
-19 -62 -34 -137z"/>
<path d="M3675 4618 c-104 -36 -276 -99 -309 -113 l-39 -17 117 -64 c65 -36
170 -96 233 -134 63 -39 117 -70 120 -70 7 0 -5 85 -34 235 -37 199 -29 183
-88 163z"/>
<path d="M2974 4321 c-170 -88 -283 -153 -436 -253 -106 -69 -107 -70 -115
-116 -10 -62 -10 -642 0 -712 8 -54 9 -56 75 -99 180 -119 519 -311 603 -341
36 -13 39 -12 161 53 175 92 283 154 433 249 l130 83 6 95 c9 131 10 461 2
599 l-6 113 -46 34 c-103 74 -552 332 -633 363 -21 8 -48 -3 -174 -68z"/>
<path d="M2143 3781 c-54 -44 -125 -105 -158 -135 l-60 -56 45 -40 c40 -36
236 -200 267 -223 9 -6 12 55 12 262 0 149 -2 271 -4 271 -3 0 -48 -36 -102
-79z"/>
<path d="M4005 3591 c0 -203 3 -268 12 -263 20 12 267 219 288 242 l20 22 -62
58 c-59 56 -246 210 -254 210 -2 0 -4 -121 -4 -269z"/>
<path d="M1728 3387 c-156 -178 -279 -385 -314 -527 -20 -81 -15 -180 14 -235
88 -172 398 -226 817 -142 129 26 121 4 81 211 -14 76 -34 198 -43 272 l-16
134 -38 25 c-56 37 -273 213 -351 284 -36 33 -69 61 -72 61 -3 0 -38 -38 -78
-83z"/>
<path d="M4370 3404 c-63 -56 -226 -188 -355 -288 -30 -23 -31 -28 -48 -167
-10 -79 -31 -209 -47 -289 -16 -80 -26 -148 -22 -152 13 -12 214 -46 341 -58
177 -16 339 2 447 49 61 27 130 95 150 146 26 70 16 198 -25 301 -55 141 -173
319 -304 459 l-62 66 -75 -67z"/>
<path d="M2450 2964 c0 -36 60 -356 75 -401 4 -13 234 61 349 111 l50 22 -124
69 c-115 63 -265 152 -325 191 -14 9 -25 12 -25 8z"/>
<path d="M3700 2908 c-52 -33 -157 -93 -233 -135 -76 -42 -136 -77 -135 -78
12 -12 388 -148 394 -143 10 12 78 391 72 406 -1 5 -46 -18 -98 -50z"/>
</g>
</svg>
